<svg version="1.2" xmlns="http://www.w3.org/2000/svg" viewBox="0 0 1200 630" width="1200" height="630">
	<title>social-thumbnail</title>
	<style>
		tspan { white-space:pre } 
		.s0 { fill: #f8f9fa } 
		.s1 { opacity: .3;fill: #ffebee } 
		.s2 { opacity: .2;fill: #ffebee } 
		.s3 { fill: #8b0000 } 
		.s4 { fill: #ffffff } 
		.s5 { fill: #f5f5f5 } 
		.s6 { fill: #666666 } 
		.s7 { fill: #d32f2f } 
		.t8 { font-size: 48px;fill: #8b0000;font-family: "Arial" } 
		.t9 { font-size: 24px;fill: #666666;font-family: "Arial" } 
	</style>
	<path fill-rule="evenodd" class="s0" d="m0 0h1200v630h-1200z"/>
	<path fill-rule="evenodd" class="s1" d="m100 150c-27.7 0-50-22.3-50-50 0-27.7 22.3-50 50-50 27.7 0 50 22.3 50 50 0 27.7-22.3 50-50 50z"/>
	<path fill-rule="evenodd" class="s1" d="m1100 610c-44.2 0-80-35.8-80-80 0-44.2 35.8-80 80-80 44.2 0 80 35.8 80 80 0 44.2-35.8 80-80 80z"/>
	<path fill-rule="evenodd" class="s2" d="m200 540c-22.1 0-40-17.9-40-40 0-22.1 17.9-40 40-40 22.1 0 40 17.9 40 40 0 22.1-17.9 40-40 40z"/>
	<g>
		<path fill-rule="evenodd" class="s3" d="m420 150h360c11 0 20 9 20 20v240c0 11-9 20-20 20h-360c-11 0-20-9-20-20v-240c0-11 9-20 20-20z"/>
		<path fill-rule="evenodd" class="s4" d="m430 170h340c5.5 0 10 4.5 10 10v220c0 5.5-4.5 10-10 10h-340c-5.5 0-10-4.5-10-10v-220c0-5.5 4.5-10 10-10z"/>
		<path fill-rule="evenodd" class="s5" d="m440 190h320v200h-320z"/>
		<path fill-rule="evenodd" class="s4" d="m460 210h280v160h-280z"/>
		<path fill-rule="evenodd" class="s6" d="m482 230h196c1.1 0 2 0.9 2 2 0 1.1-0.9 2-2 2h-196c-1.1 0-2-0.9-2-2 0-1.1 0.9-2 2-2z"/>
		<path fill-rule="evenodd" class="s6" d="m482 250h176c1.1 0 2 0.9 2 2 0 1.1-0.9 2-2 2h-176c-1.1 0-2-0.9-2-2 0-1.1 0.9-2 2-2z"/>
		<path fill-rule="evenodd" class="s6" d="m482 270h216c1.1 0 2 0.9 2 2 0 1.1-0.9 2-2 2h-216c-1.1 0-2-0.9-2-2 0-1.1 0.9-2 2-2z"/>
		<path fill-rule="evenodd" class="s6" d="m482 290h156c1.1 0 2 0.9 2 2 0 1.1-0.9 2-2 2h-156c-1.1 0-2-0.9-2-2 0-1.1 0.9-2 2-2z"/>
		<path fill-rule="evenodd" class="s6" d="m482 310h236c1.1 0 2 0.9 2 2 0 1.1-0.9 2-2 2h-236c-1.1 0-2-0.9-2-2 0-1.1 0.9-2 2-2z"/>
		<path fill-rule="evenodd" class="s6" d="m482 330h186c1.1 0 2 0.9 2 2 0 1.1-0.9 2-2 2h-186c-1.1 0-2-0.9-2-2 0-1.1 0.9-2 2-2z"/>
		<path fill-rule="evenodd" class="s7" d="m720 170h20v60h-20z"/>
		<path fill-rule="evenodd" class="s7" d="m720 170l10-10 10 10z"/>
	</g>
	<text id="the artifact" style="transform: matrix(1,0,0,1,611,522)" >
		<tspan x="-133.4" y="0" class="t8">t</tspan><tspan  y="0" class="t8">h</tspan><tspan  y="0" class="t8">e</tspan><tspan  y="0" class="t8"> </tspan><tspan  y="0" class="t8">a</tspan><tspan  y="0" class="t8">r</tspan><tspan  y="0" class="t8">t</tspan><tspan  y="0" class="t8">i</tspan><tspan  y="0" class="t8">f</tspan><tspan  y="0" class="t8">a</tspan><tspan  y="0" class="t8">c</tspan><tspan  y="0" class="t8">t
</tspan>
	</text>
	<text id="
    Buy • Sell • Discover
  " style="transform: matrix(1,0,0,1,600,540)" >
		<tspan x="-141.5" y="28.8" class="t9">    Buy • Sell • Discover
</tspan>
		<tspan x="-7.6" y="57.6" class="t9">  
</tspan>
	</text>
	<g>
		<path fill-rule="evenodd" class="s3" d="m105 400h50c2.8 0 5 2.2 5 5v30c0 2.8-2.2 5-5 5h-50c-2.8 0-5-2.2-5-5v-30c0-2.8 2.2-5 5-5z"/>
		<path fill-rule="evenodd" class="s4" d="m105 405h50v30h-50z"/>
		<path fill-rule="evenodd" class="s6" d="m111 410h38c0.6 0 1 0.4 1 1v1c0 0.6-0.4 1-1 1h-38c-0.6 0-1-0.4-1-1v-1c0-0.6 0.4-1 1-1z"/>
		<path fill-rule="evenodd" class="s6" d="m111 416h33c0.6 0 1 0.4 1 1v1c0 0.6-0.4 1-1 1h-33c-0.6 0-1-0.4-1-1v-1c0-0.6 0.4-1 1-1z"/>
		<path fill-rule="evenodd" class="s6" d="m111 422h28c0.6 0 1 0.4 1 1v1c0 0.6-0.4 1-1 1h-28c-0.6 0-1-0.4-1-1v-1c0-0.6 0.4-1 1-1z"/>
	</g>
	<g>
		<path fill-rule="evenodd" class="s3" d="m1045 400h50c2.8 0 5 2.2 5 5v30c0 2.8-2.2 5-5 5h-50c-2.8 0-5-2.2-5-5v-30c0-2.8 2.2-5 5-5z"/>
		<path fill-rule="evenodd" class="s4" d="m1045 405h50v30h-50z"/>
		<path fill-rule="evenodd" class="s6" d="m1051 410h38c0.6 0 1 0.4 1 1v1c0 0.6-0.4 1-1 1h-38c-0.6 0-1-0.4-1-1v-1c0-0.6 0.4-1 1-1z"/>
		<path fill-rule="evenodd" class="s6" d="m1051 416h33c0.6 0 1 0.4 1 1v1c0 0.6-0.4 1-1 1h-33c-0.6 0-1-0.4-1-1v-1c0-0.6 0.4-1 1-1z"/>
		<path fill-rule="evenodd" class="s6" d="m1051 422h28c0.6 0 1 0.4 1 1v1c0 0.6-0.4 1-1 1h-28c-0.6 0-1-0.4-1-1v-1c0-0.6 0.4-1 1-1z"/>
	</g>
</svg>